<?xml version="1.0"?>
<svg
   xmlns="http://www.w3.org/2000/svg"
   width="260.291908232"
   height="384.184051972"
   viewBox="0 0 188.9213 278.8429">
  <g
     transform="translate(-7.506476,-16.397804)">
    <g
       id="g54">
      <g
         id="g35">
        <path
           transform="matrix(0.33290375,0,0,0.33290375,7.506476,16.397864)"
           id="path10"
           d="m 128.74,819.79 h -1.024 z M 257.515,683.724 h -1.023 z m 8.353,-2.084 h -1.025 z M 148.64,807.255 c 1.078,-1.078 0,-4.203 0,-5.244 0,-2.084 -2.085,-2.084 -4.185,-3.162 -4.204,-5.207 -12.555,-2.047 -18.841,-2.047 -2.102,0 -3.125,1.006 -3.125,3.125 0,2.084 1.023,4.201 1.023,6.25 0,2.119 1.078,5.281 1.078,7.328 2.1,1.078 4.149,2.119 7.31,1.078 h 2.103 c 4.201,-3.125 10.452,-4.203 14.637,-7.328 m 188.404,-9.447 c -3.09,-3.125 -4.148,-8.334 -8.314,-8.334 -3.163,0 -5.264,-3.16 -9.449,-2.119 -1.023,1.078 -1.023,0 -1.023,1.078 -2.138,0 -4.202,0 -6.304,1.041 1.041,3.09 -3.161,5.209 -3.161,8.334 -3.125,2.119 -1.023,5.244 -1.023,8.369 3.125,6.287 8.351,13.613 17.798,13.613 h -1.059 v 1.078 h 7.31 v -1.078 h -1.023 c 2.102,0 4.184,-3.125 5.263,-5.207 4.146,-4.203 3.123,-12.572 0.985,-16.775 M 39.764,469.132 c 0,-2.117 0,-3.16 -1.023,-4.238 1.023,-6.25 -1.023,-10.416 0,-15.662 -1.023,-2.082 -2.102,-4.166 -1.023,-6.285 -2.102,-2.082 -2.102,-7.328 -5.263,-9.41 -1.041,-4.203 -6.269,0 -9.43,-2.084 -3.16,2.084 -4.184,3.16 -8.388,4.166 0,2.121 -2.047,5.246 -2.047,7.328 0,6.285 -2.102,10.49 -1.078,15.697 -1.023,4.203 1.078,6.25 1.078,10.488 2.047,3.127 4.148,1.043 6.251,2.121 v -1.078 c 4.184,-1.043 7.345,1.078 11.512,1.078 3.16,0 4.184,-2.121 7.364,-2.121 z m 360.104,320.342 c -1.023,-1.041 -2.1,-3.16 -5.225,-3.16 -5.229,-3.125 -12.572,-2.084 -19.9,-2.084 h 1.076 c -1.076,0 -2.102,1.006 -2.102,1.006 1.025,4.238 1.025,8.406 1.025,11.566 2.1,1.006 0,5.209 3.161,5.209 5.226,-2.084 13.613,-2.084 19.864,-2.084 1.076,0 1.076,-2.119 2.1,-3.125 4.205,-1.078 10e-4,-4.239 10e-4,-7.328 m 71.214,5.209 c 0,-1.041 -4.185,-4.168 -5.228,-5.209 -5.261,-4.238 -11.547,-4.238 -17.832,-4.238 h 1.059 -3.161 c -2.049,8.406 -3.125,20.941 -5.228,29.348 2.103,3.162 8.389,1.041 12.555,3.162 6.321,0 12.607,-2.121 14.674,-8.406 5.264,-3.163 1.023,-10.491 3.161,-14.657 M 64.891,210.575 c -4.149,-5.244 -4.149,-10.453 -8.353,-13.614 -3.161,-1.042 -5.226,0 -7.363,-1.042 -1.023,3.125 -3.125,-1.078 -5.209,-1.078 -4.202,2.119 -7.327,2.119 -10.453,2.119 -3.16,-2.119 -3.16,3.161 -6.286,2.084 -1.041,0 -2.1,2.083 -3.16,3.125 -3.126,1.078 -2.064,4.203 -5.226,4.203 -4.204,2.083 -5.228,8.369 -5.228,12.572 -2.102,5.208 1.023,11.495 1.023,15.697 1.079,4.203 5.228,7.328 8.388,10.489 7.328,3.125 14.692,1.042 20.941,-1.078 10.472,-6.286 20.925,-15.697 19.901,-27.192 -1.042,-2.118 2.083,-4.201 1.025,-6.285 m 383.131,466.862 c -2.103,0 0,-1.078 0,-1.078 -2.103,-8.332 1.059,-16.703 0,-25.072 -1.026,-9.445 1.059,-23.061 -3.126,-33.514 -2.102,-3.125 -5.228,0 -8.353,0 -1.059,0 -2.138,-1.041 -3.161,-1.041 -2.102,1.041 -5.228,1.041 -8.388,0 -4.166,1.041 -8.387,-3.162 -12.535,-2.084 h 1.023 c -1.023,1.041 -2.102,1.041 -2.102,0 l -7.31,-1.078 c -4.204,-4.129 1.059,-10.453 0,-15.695 0,-11.496 0,-20.906 -1.042,-30.391 -1.061,-6.25 -1.061,-12.537 -2.084,-16.668 3.126,-9.482 -1.078,-18.895 -1.078,-29.346 v -20.906 c -2.1,-6.322 0,-13.65 -2.1,-20.977 0,-9.412 -1.023,-20.943 -1.023,-30.355 -1.061,-1.006 0,-3.16 0,-3.16 -1.061,-2.047 -1.061,-4.166 -1.061,-6.25 v -7.328 -6.285 c 0,-1.041 -1.041,-1.041 0,-1.041 0,-2.121 0,-5.246 -1.041,-7.328 0,-1.043 1.041,-2.119 0,-4.168 v -1.076 c -1.024,-7.293 1.041,-16.775 -1.024,-25.109 2.065,-4.203 0,-8.406 0,-12.572 0,-3.125 1.024,-6.25 -1.061,-8.369 2.085,-5.209 -1.041,-10.49 0,-15.697 -1.041,-11.496 -1.041,-26.188 -2.101,-38.723 -2.102,-2.12 -1.043,-4.204 -2.102,-5.245 1.059,-5.245 0,-9.447 -1.023,-14.655 l -5.262,-3.162 c -3.126,1.042 -5.229,2.119 -6.252,3.162 -4.201,0 -5.225,3.16 -8.388,3.16 -3.123,-2.154 -7.327,0 -10.452,0 -3.161,3.125 -7.31,1.043 -11.549,2.048 v 1.077 c -1.023,0 -3.124,-1.077 -4.149,1.043 -1.076,-1.043 -4.237,0 -4.237,-1.043 v 1.043 c -4.148,-1.043 -8.314,4.166 -12.536,2.082 -1.042,1.078 -4.167,2.084 -5.228,1.078 -3.161,1.006 -6.286,4.167 -10.488,2.082 -1.023,2.085 -5.228,0 -7.31,2.085 -1.041,1.041 -4.204,1.041 -6.286,1.041 -2.066,2.084 -6.269,0 -8.388,3.161 -4.167,-1.077 -6.269,3.09 -10.453,1.043 -2.102,3.124 -7.327,2.047 -11.513,2.047 -1.023,1.077 -3.124,2.154 -4.202,1.077 -1.023,1.077 -4.149,0 -6.251,1.077 -4.22,0 -6.286,3.126 -10.471,2.085 -2.102,0 -5.227,-1.079 -6.304,2.046 -1.061,0 -3.125,1.078 -5.21,0 -4.201,1.078 -8.386,3.162 -12.554,2.12 -2.101,2.083 -5.261,2.083 -8.386,2.083 -3.161,0 -7.311,3.125 -10.473,1.078 -2.064,2.047 -4.202,-1.078 -6.305,0 0,0 -1.022,1.041 -2.082,2.047 1.06,7.365 4.185,13.615 4.185,21.984 -1.023,0 1.059,1.078 0,1.078 1.059,5.207 2.138,11.529 1.059,15.697 1.079,5.244 1.079,10.488 5.228,15.732 5.228,-2.119 12.555,-3.197 17.817,-5.244 5.208,-2.119 12.572,-1.078 16.721,-5.244 5.226,2.084 7.327,-2.119 11.549,-1.078 v 16.775 8.334 c 0,4.203 0,10.488 2.065,14.689 -2.065,5.211 0,10.49 1.022,14.658 -1.022,8.369 1.079,15.697 1.079,23.059 0,6.252 2.102,12.537 0,17.746 2.102,6.287 0,9.41 0,15.697 v 19.9 c 1.059,6.287 2.102,11.529 0,15.734 0,5.207 0,12.535 2.102,17.779 -1.043,7.328 1.059,16.703 1.059,24.068 v 8.332 c 1.023,4.24 1.023,7.363 1.023,10.525 v 8.369 c 1.042,5.209 0,10.49 1.042,14.656 -1.042,8.406 1.061,13.613 3.162,21.984 -1.078,3.123 -4.204,3.123 -7.329,3.123 -3.16,-2.117 -9.447,1.043 -12.572,0 -5.263,0 -9.412,3.162 -12.59,2.084 -5.208,2.119 -12.537,1.078 -17.762,1.078 0,1.041 -1.062,2.082 -1.062,4.166 1.062,5.244 0,12.572 1.062,17.816 0,8.369 2.1,14.656 1.041,21.947 1.059,5.246 0,13.615 4.184,15.734 1.061,0 5.228,0 7.329,-1.041 4.185,1.041 8.386,-2.084 14.673,-2.084 7.311,-1.078 11.478,-3.162 19.864,-2.119 v -1.043 H 268 v -1.041 c 2.1,0 2.1,0 3.123,1.041 h -1.023 3.126 v -1.041 c 2.102,-1.041 5.263,0 7.31,-1.041 8.388,0 16.738,-3.162 24.104,-2.119 3.125,-2.121 7.31,1.078 9.411,1.078 7.327,-3.199 14.675,-1.078 22.002,-2.121 3.125,1.043 9.374,-1.078 13.613,0 8.333,-1.078 15.697,0 21.948,0 3.125,1.043 7.327,0 11.512,1.043 1.078,-2.121 4.203,1.078 5.227,2.119 6.287,0 12.59,-1.041 17.798,-1.041 9.467,2.082 20.942,0 31.413,1.041 l 4.203,1.041 v 1.041 h 2.101 c 1.028,-1.037 3.128,-3.119 4.154,-5.24 M 41.865,140.422 h -1.023 c 0,-4.167 2.083,-8.37 0,-12.537 0,-3.125 3.124,-5.245 1.023,-7.328 -3.125,-1.078 -4.148,-4.203 -6.25,-6.286 -3.161,0 -5.263,-1.042 -8.389,-3.125 -2.1,2.083 -4.202,2.083 -6.286,4.131 -1.076,4.202 -6.304,8.405 -6.304,12.608 0,5.208 -4.148,9.411 -3.125,14.62 1.078,4.203 -1.023,8.405 1.078,12.572 1.023,2.119 2.047,0 4.148,0 3.126,2.119 6.286,0 10.488,2.119 4.187,-1.077 10.49,4.167 13.615,0 v -15.733 z m 37.699,613.454 c 0,3.125 -1.061,6.25 -1.061,8.334 0,1.041 0,2.119 -1.041,2.119 v -1.078 h -4.185 l 1.023,1.078 h -3.125 -8.353 c -2.083,0 -3.161,-2.119 -6.286,-1.078 -6.286,0 -15.696,-3.125 -22.002,-1.041 h -8.351 c 0,0 0,-1.006 -1.059,-1.006 v 1.006 c -3.125,0 -7.312,0 -10.49,-1.006 -1.023,3.125 -4.148,-1.078 -6.251,1.006 -2.082,-2.084 0,-6.285 1.044,-8.334 v -1.078 c 1.059,-1.004 1.059,-3.125 1.059,-5.244 0,-2.047 3.125,0 4.148,0 h 3.179 c 5.209,1.078 9.411,-1.006 12.537,2.119 5.263,1.043 10.489,-1.041 13.613,2.121 7.347,0 11.513,0 16.775,1.004 6.29,0 12.54,0 18.826,1.078 m 78.504,77.482 c -1.041,0 -3.143,0 -4.166,-1.078 1.023,-3.162 -1.062,-3.162 -2.138,-4.203 -2.047,-3.125 -3.125,-7.328 -7.31,-8.332 -1.043,0 -2.102,2.045 -4.204,1.004 0,1.041 -2.047,0 -4.148,0 -1.059,1.041 -4.202,1.041 -7.362,1.041 -1.024,1.078 -2.05,0 -3.126,1.078 -1.023,2.084 1.076,5.209 0,6.25 0,4.24 4.202,8.371 0,10.49 -6.286,-2.119 -1.023,-8.406 -4.184,-12.572 0,-5.246 -2.103,-8.371 -2.103,-12.572 0,-3.125 -1.023,-6.287 0,-9.412 -1.023,-2.084 -2.066,-7.328 -2.066,-10.488 6.251,1.078 10.454,-3.09 16.741,-2.049 h 3.123 v 1.041 c 7.329,-1.041 12.592,2.086 15.715,7.293 1.062,3.162 3.163,6.287 2.085,9.447 0,2.084 -2.085,4.168 -4.185,6.287 0,4.166 3.161,6.285 5.263,9.41 1.024,3.125 4.149,3.125 2.065,7.365 M 77.463,708.868 c 0,2.047 0,5.209 -1.023,7.291 -6.286,1.078 -10.49,1.078 -15.698,2.119 H 36.639 c -2.103,2.084 -6.286,1.006 -9.412,2.084 l -1.041,1.041 c -5.245,1.078 -10.47,0 -15.697,2.084 0,-4.203 5.228,-8.334 7.327,-11.494 4.187,-2.119 2.049,-8.404 7.312,-8.404 2.1,-6.252 6.286,-10.455 9.409,-14.621 1.079,-6.287 8.389,-7.328 8.389,-12.609 1.041,-4.131 5.227,-8.332 7.327,-12.535 1.061,-3.162 -1.077,-5.209 -2.101,-7.328 -1.023,0 -3.125,0 -3.125,1.041 -3.161,-2.082 -9.411,-1.041 -13.613,0 -3.163,2.119 -5.228,-2.082 -8.389,1.078 -4.184,0 -8.388,-1.078 -12.536,0 -1.059,-2.119 0,-3.16 0,-5.279 -1.059,-2.049 -2.103,-4.131 0,-6.252 5.228,0 12.536,0 16.738,2.121 2.103,1.006 4.187,-1.078 5.228,-2.121 11.512,1.043 20.923,2.121 31.413,0 h 8.386 c 1.025,3.127 -2.1,4.203 -2.1,6.252 -1.078,1.078 -1.078,2.119 -1.078,2.119 0,1.041 -2.047,2.082 -3.126,2.082 v -1.041 c -3.125,1.041 -1.059,6.322 -5.208,6.322 -1.078,3.125 -1.078,6.25 -4.203,8.334 -1.06,4.203 -5.226,5.207 -5.226,9.447 -3.161,2.082 -3.161,6.25 -7.347,8.369 0,2.084 -3.124,4.166 -4.202,7.291 0,3.162 -2.047,4.203 -3.125,7.33 1.078,1.076 1.078,3.16 3.125,4.201 4.202,1.078 10.488,0 15.715,1.078 4.185,-1.078 9.412,1.006 14.675,-1.078 2.099,2.084 6.285,-3.125 7.309,1.078 m 136.102,80.606 c 0,1.041 -1.059,1.041 -1.059,1.041 0,1.041 1.059,2.049 0,3.127 -4.202,2.082 -9.43,-1.078 -13.578,0 -4.24,1.041 -9.447,-2.086 -11.549,3.16 0,3.125 -2.102,8.334 1.061,9.375 5.226,3.162 10.488,2.119 15.715,2.119 1.023,2.084 1.023,3.162 0,5.209 -1.078,1.078 -3.162,0 -5.227,0 -4.24,-1.041 -8.389,-2.047 -11.549,1.078 0,4.166 -2.102,8.369 2.102,10.453 5.207,2.082 11.512,2.082 17.798,2.082 1.025,1.043 5.228,0 5.228,3.162 -1.041,1.078 -1.041,2.082 -2.103,2.082 -2.1,-1.004 -4.166,1.078 -6.249,-1.004 -3.162,2.082 -5.227,-1.078 -9.467,0 0,-2.156 -4.148,0 -5.207,-1.078 0,1.078 -3.143,1.078 -4.203,1.078 -2.065,1.004 -3.124,-1.078 -3.124,-2.156 0,-2.084 -1.061,-4.166 0,-6.25 v -4.203 c 0,-4.166 1.059,-7.291 0,-11.494 0,-5.244 0,-12.572 2.1,-17.781 6.286,0 12.537,1.041 18.823,0 3.161,1.041 6.304,-1.041 9.43,-1.041 z M 77.463,596.868 c -4.185,2.082 -8.388,0 -12.572,1.006 0,0 -3.126,1.076 -4.149,0 -5.263,2.117 -11.566,0 -16.775,2.117 H 38.74 v -1.041 c -2.102,1.041 -5.228,1.041 -8.388,1.041 0,1.043 -2.103,1.043 -3.126,1.043 0,-1.043 -3.16,0 -4.202,0 -1.022,0 -2.084,0 -3.16,1.041 -2.049,8.334 0,19.9 -1.023,28.27 l -1.025,1.041 c -2.1,1.043 -5.226,1.043 -6.304,-1.041 -1.023,-4.203 0,-9.447 -1.023,-14.656 1.023,-2.119 0,-4.201 1.023,-6.248 0,-1.08 -1.023,-5.281 0,-8.406 h -1.023 c 1.023,-1.043 0,-4.166 0,-5.244 0,-6.287 1.023,-13.615 -1.059,-19.9 l 1.059,-1.043 -1.059,-1.041 c 1.059,-3.16 1.059,-7.328 1.059,-10.453 2.102,-2.119 4.148,0 7.327,-1.041 1.025,1.041 2.049,2.084 2.049,3.125 -1.023,2.047 0,2.047 0,2.047 1.076,5.281 -1.023,10.525 0,15.77 0,2.084 -1.023,5.209 0,6.25 3.16,3.16 8.386,3.16 12.59,1.041 7.31,2.119 13.596,-2.082 19.899,-1.041 3.125,-1.041 5.21,0 8.388,-2.084 4.149,1.043 8.334,1.043 12.537,-1.041 1.023,0 3.161,0 4.185,1.041 -1.025,3.123 1.04,5.242 -0.001,9.447 m 201.03,230.25 c -7.365,-1.041 -9.465,3.162 -15.751,3.162 h 1.077 v -1.078 h -3.179 v 1.078 -1.078 h 1.078 v 1.078 c -4.204,-1.078 -6.286,-3.162 -9.467,-3.162 -3.088,-4.166 -9.411,-7.328 -10.435,-12.535 -1.023,-4.203 0,-6.287 -2.1,-9.447 1.076,-3.125 3.123,-4.168 1.076,-7.328 0,-3.125 4.148,-3.125 4.148,-6.252 4.222,-1.041 6.287,-6.32 11.549,-5.242 3.126,-1.078 11.514,-3.125 13.613,1.041 v 3.16 c -6.285,0 -11.548,1.041 -15.715,4.168 -5.226,-1.041 -5.226,4.166 -8.387,7.328 -1.061,6.285 1.041,12.572 6.249,16.738 1.079,0 3.181,2.119 4.239,3.125 h 8.352 c 0,-1.006 -1.023,-1.006 -2.101,-1.006 h 11.512 c 0,0 0,-1.078 1.078,-1.078 0.003,3.162 3.164,4.203 3.164,7.328 M 73.278,508.897 c -4.203,4.201 1.023,9.41 -1.025,12.572 1.025,8.369 -3.178,15.697 0,22.02 -1.076,0.971 -1.076,3.125 -3.178,3.125 H 60.741 54.437 35.615 30.352 26.185 c -3.161,1.006 -3.161,0 -5.245,0 -5.225,0 -9.429,-3.125 -13.613,-1.078 l -1.023,-3.125 c 0,-2.084 1.023,-4.203 1.023,-6.287 -2.102,-6.285 1.059,-14.654 -1.023,-20.941 0,-6.285 -3.179,-11.494 -1.078,-16.738 v -1.041 c 2.102,1.041 8.388,-2.119 7.364,3.16 2.047,4.131 -1.078,7.293 0,10.453 2.047,6.287 2.047,16.738 2.047,24.066 1.079,3.125 6.304,3.125 9.43,3.125 h 2.119 c 2.064,1.043 4.167,1.043 6.269,0 3.161,-3.125 2.082,-8.369 3.161,-12.572 v -12.537 c 0,-4.201 4.148,-2.082 6.25,-2.082 1.06,1.041 3.161,2.082 2.101,4.166 -3.124,3.125 1.061,6.287 -1.041,10.453 0,5.281 1.041,9.447 3.125,12.572 h 2.102 c 4.202,0 7.327,1.043 11.512,0 6.286,-4.166 4.204,-14.656 4.204,-21.984 v -3.125 c 2.082,-4.201 1.023,-8.404 2.082,-12.535 3.126,-1.078 5.228,-1.078 7.329,0 2.098,4.13 -2.103,6.249 -0.002,8.333 m 270.088,294.155 c 0,7.328 -1.06,13.613 -4.185,18.822 -1.061,1.078 -2.138,3.162 -4.204,4.203 -5.243,1.041 -10.47,1.041 -14.637,0 -2.084,1.041 -5.263,1.041 -7.347,-1.041 -1.041,-2.084 -4.202,-6.287 -5.226,-7.291 -4.204,-3.162 -4.204,-7.365 -6.286,-11.568 0,-6.25 2.082,-12.535 5.263,-16.703 l 3.126,-5.244 c 4.184,-3.125 8.386,-3.125 12.534,-3.125 6.324,1.006 13.651,2.084 16.776,8.369 3.127,4.168 3.127,9.375 4.186,13.578 m 64.891,14.693 c 1.023,1.004 0,2.045 -1.023,3.123 -3.161,-2.119 -4.203,-6.285 -7.365,-8.404 0,-3.125 -4.184,-6.287 -6.249,-7.328 -5.263,0 -7.329,1.041 -11.548,1.041 -2.067,1.078 -4.167,0 -5.229,2.119 0,6.287 0,9.449 1.062,14.656 -1.062,0 -1.062,2.084 -3.161,2.084 0,-1.043 0,-2.084 -1.025,-4.168 -3.123,-2.119 1.025,-7.363 -2.1,-10.488 -1.023,-8.369 0,-14.656 -2.084,-23.025 -1.042,-3.125 -1.042,-4.166 0,-7.326 7.309,-1.08 16.756,-2.086 25.109,1.076 h 4.201 c 4.186,4.131 7.31,8.369 8.389,15.697 -1.079,3.125 -4.203,5.209 -6.287,8.334 2.083,4.203 6.286,8.369 7.31,12.609 M 74.302,475.382 c -1.023,0 -1.023,1.078 -2.049,0 -3.178,0 -6.304,0 -7.362,1.078 -3.126,-1.078 -3.126,1.078 -5.228,1.078 0,0 -1.023,-1.078 0,-1.078 h -2.1 v 1.078 c -1.025,0 -4.187,1.006 -5.21,-1.078 -1.041,3.127 -5.226,-1.078 -8.388,1.078 -2.101,2.049 -4.202,-2.156 -6.249,1.006 -2.102,0 -4.204,1.043 -6.304,-1.006 0,1.006 -2.084,2.049 -4.187,1.006 -1.041,1.043 -3.16,2.084 -4.202,0 -1.022,0 -4.184,3.125 -6.286,0 -2.102,0 -4.148,3.125 -6.25,1.043 H 6.304 c -3.179,0 -1.078,-3.127 -2.102,-4.205 2.102,-4.129 -2.103,-12.535 0,-16.738 1.023,-3.125 -1.077,-8.369 1.023,-11.494 0,-1.078 1.078,-3.125 0,-4.203 3.16,-5.207 3.16,-10.453 9.411,-13.613 4.204,-4.166 10.49,-8.334 17.817,-7.328 5.263,2.119 7.31,5.281 10.471,8.369 5.227,3.162 8.388,-4.166 12.554,-4.166 2.085,-2.084 7.346,-4.203 11.55,-6.287 L 69.075,421 c 0,2.047 3.178,6.287 0,8.334 -4.185,0 -5.208,4.203 -8.334,4.203 -5.263,1.076 -7.364,6.285 -12.59,7.328 -6.286,1.041 -1.023,7.361 -4.186,11.492 4.186,5.246 2.084,11.568 4.186,16.775 1.023,1.043 3.161,1.043 4.202,1.043 0,-1.043 4.185,-1.043 5.21,-2.084 5.261,-1.076 11.512,1.041 15.715,0 1.024,3.162 2.1,4.168 1.024,7.291 m 365.367,346.492 h -2.064 v -1.006 h 2.064 z m 36.639,-25.072 c -1.076,6.25 1.025,17.781 -8.387,20.943 -1.023,2.045 -3.125,3.123 -5.227,3.123 v 1.006 c -1.059,-1.006 -3.126,0 -4.185,1.078 -3.125,-1.078 -4.202,1.041 -7.327,0 h -5.263 c -1.023,0 -3.125,-1.078 -4.149,-1.078 v -1.006 c -3.16,1.006 -5.227,-1.078 -8.388,0 v 1.006 c -1.076,-1.006 -1.076,-2.084 -1.076,-2.084 0,-1.041 2.1,-2.045 2.1,-3.125 1.079,-9.41 5.263,-17.816 5.263,-27.191 2.102,-3.16 1.023,-6.285 1.023,-8.369 0,-2.156 -1.023,-4.238 0,-4.238 h 6.304 c -1.076,0 -1.076,0 -1.076,1.076 h 1.076 l 1.026,-1.076 c 6.285,3.162 11.546,3.162 17.832,6.322 5.228,3.124 10.454,6.285 10.454,13.613 M 75.378,370.71 c 2.085,8.369 -3.125,12.572 -2.1,20.979 0,4.131 -2.102,6.285 -3.125,10.416 -1.078,2.119 -1.078,3.197 -3.125,2.119 -2.138,0 -4.204,-1.041 -5.264,-2.119 3.126,-4.131 3.126,-9.41 4.185,-13.578 1.079,-1.041 2.103,-3.125 1.079,-4.166 -2.138,-4.203 1.023,-9.447 -2.138,-12.572 l -5.228,-4.203 -7.31,-1.041 c -2.102,4.166 -7.327,1.041 -8.388,4.166 -4.202,5.244 -8.351,10.488 -11.512,16.775 -3.125,1.041 -5.228,5.209 -8.388,5.209 -2.064,2.119 -4.202,0 -6.251,2.119 C 6.304,391.688 2.1,381.198 0,370.71 c 0,-2.047 0,-4.166 1.076,-6.285 -1.076,0 0,-1.043 0,-1.043 0,-1.006 0,-3.125 1.023,-4.203 0,-3.125 4.204,-7.291 5.228,-10.451 3.161,-2.084 3.161,-6.252 7.31,-6.252 2.102,2.084 6.304,3.162 8.388,6.252 1.042,2.119 -2.084,1.041 -3.16,2.119 -3.126,-1.078 -3.126,3.125 -6.251,3.125 -1.023,3.125 -3.125,6.285 -4.184,8.404 v 8.334 5.244 c 1.059,3.125 4.184,5.244 6.286,7.328 v -1.006 1.006 c 11.511,1.078 15.697,-11.494 20.923,-18.857 3.125,-2.049 6.286,-6.252 11.513,-6.252 v -1.076 c 5.226,-1.043 11.512,-2.049 14.673,1.076 h 1.043 v -1.076 c 3.161,1.076 5.208,4.238 8.386,6.285 1.024,3.162 1.024,5.281 3.124,7.328 m 461.655,413.519 c -1.061,2.084 -2.138,4.203 -3.163,5.244 0,-2.119 -4.184,-4.238 -4.184,-6.285 -4.201,-2.084 -10.488,-2.084 -14.654,-2.084 -2.085,2.084 -5.21,4.131 -5.21,6.25 3.125,10.453 17.763,9.447 18.823,20.941 1.041,2.084 -1.061,6.287 -1.061,9.449 -2.1,1.004 -3.124,3.123 -6.249,4.129 -1.079,2.119 -6.304,1.078 -8.389,1.078 -3.125,-1.078 -7.327,0 -10.452,-1.078 h -2.102 1.041 c 0,-2.084 -1.041,0 -2.101,-1.006 -1.061,-1.078 -2.102,-2.119 -1.061,-4.203 2.12,-1.041 5.21,2.084 8.37,2.084 3.179,0 7.328,1.041 10.488,-1.004 2.066,0 4.204,-1.08 4.204,-3.162 -1.079,-2.119 3.125,-2.119 3.125,-4.203 -1.043,-1.041 -1.043,-4.203 -3.125,-4.203 -1.079,-4.166 -5.228,-4.166 -8.389,-8.369 -1.078,-1.006 -4.201,-1.006 -4.201,-4.166 -4.187,0 -2.103,-4.168 -4.187,-6.287 1.061,-3.125 1.061,-7.326 5.263,-8.406 3.125,-5.207 11.514,-2.082 16.722,-2.082 h 3.143 c 2.122,3.162 6.289,4.238 7.349,7.363 M 75.378,300.593 c 0,4.201 -6.303,5.244 -6.303,9.411 0,2.12 -2.047,2.12 -2.047,4.167 -2.138,0 -3.161,2.154 -4.204,2.154 0,2.085 -1.06,4.131 -2.083,5.209 -4.203,-1.078 -4.203,4.203 -8.388,4.203 -2.102,2.047 -5.226,-1.078 -6.304,2.047 -2.084,1.078 -4.185,1.078 -6.286,1.078 -1.023,-3.125 -2.047,0 -4.148,0 -1.079,0 -5.263,0 -6.286,-4.203 -1.079,0 -2.103,0 -2.103,1.078 -4.202,0 -6.286,-2.119 -8.386,-5.281 -2.103,1.078 -3.125,0 -4.204,-1.005 1.079,-4.203 -5.207,-5.28 -5.207,-9.447 -1.044,-6.286 -2.103,-13.577 -3.126,-19.9 1.023,-2.083 0,-5.208 1.023,-7.292 l 1.059,-4.203 c 2.103,0 6.251,1.042 7.33,3.125 -2.103,5.245 1.022,9.446 0,13.649 5.225,5.209 3.125,12.536 9.411,16.74 3.123,4.201 8.386,7.327 13.613,7.327 3.125,0 7.31,-3.126 11.512,-3.126 2.102,-2.154 7.312,-4.201 9.411,-7.363 6.286,-5.244 5.228,-13.578 6.286,-20.941 0,-2.084 1.079,-6.286 -1.059,-9.412 2.138,-1.041 0,-4.202 0,-6.286 l 4.185,-1.041 4.203,1.041 c 0,5.245 -1.025,9.412 1.023,13.614 3.163,5.245 -1.022,9.448 1.078,14.657 m -3.125,-70.154 c -2.1,2.119 -3.178,5.245 -6.304,7.328 -1.059,2.119 -1.059,5.245 -5.208,4.203 0,1.042 0,3.161 -3.178,3.161 -1.025,3.125 -2.085,4.167 -5.21,5.208 -3.179,-1.042 -4.202,3.161 -6.304,2.119 -2.084,4.167 -7.31,-1.078 -10.435,1.042 -4.202,-2.12 -8.389,3.125 -12.591,0 -6.286,-1.042 -12.536,-4.203 -15.697,-9.447 -1.023,-4.167 -3.125,-9.411 -4.202,-14.655 0,-2.12 -1.025,-7.328 -1.025,-9.375 0,0 0,-2.155 1.025,-2.155 1.077,-2.048 1.077,-4.131 1.077,-6.25 -1.077,-6.286 6.286,-9.448 9.411,-15.698 l 9.411,-5.208 c 11.512,-2.119 24.104,-5.28 35.615,-2.119 2.102,1.042 3.125,2.119 3.125,3.125 2.103,2.119 3.126,1.042 3.126,1.042 2.138,2.083 8.388,2.083 6.286,6.286 3.125,8.369 2.102,20.978 1.076,29.311 v 2.082 z m 0,-59.628 c -3.178,1.006 -7.362,-1.077 -10.488,-1.077 -4.201,-1.042 -8.388,2.083 -10.452,-1.042 -7.347,0 -11.549,-3.125 -18.858,-3.125 h -1.041 c 0,1.042 -3.163,0 -4.187,0 h -1.041 -10.47 c -3.126,-1.078 -7.33,-1.078 -11.514,-1.078 -2.103,-2.083 -1.077,-3.125 -1.077,-6.25 -1.025,-2.119 1.077,-4.167 0,-7.328 2.101,-5.245 3.179,-11.531 3.179,-16.739 4.185,-7.364 3.126,-15.733 7.31,-23.025 5.228,-4.203 12.572,-7.328 18.841,-5.28 5.263,1.078 9.411,3.161 11.512,8.405 4.186,4.167 4.186,8.37 5.209,12.536 -1.023,5.245 0,12.572 0,17.781 0,2.12 -1.023,4.203 -1.023,7.328 1.023,2.155 -1.023,5.28 2.101,6.322 2.102,-1.042 5.227,1.042 7.312,2.084 3.178,1.042 6.304,0 8.386,1.042 h 5.228 c -0.003,3.124 1.073,6.321 1.073,9.446 m 477.315,568.374 c 0,4.203 2.103,10.488 -3.125,12.609 -4.185,0 -8.387,4.131 -12.573,1.004 -1.059,1.078 -2.064,3.127 -4.184,2.121 v -1.043 c -3.143,-1.078 -6.269,0 -8.351,0 v 1.043 H 505.62 v -1.043 h -10.49 v 1.043 c -3.125,0 -7.309,1.006 -10.47,0 0,0 1.059,-1.043 -1.041,-1.043 -1.062,0 -4.187,0 -4.187,1.043 -4.201,-2.121 -12.535,-1.043 -16.738,-1.043 v 1.043 h -5.226 1.041 v -1.043 l -45.026,3.125 h -1.023 1.023 c -6.25,1.043 -17.799,1.043 -26.15,0 0,-1.076 -1.043,0 -3.125,0 l -1.078,1.043 c -4.185,0 -10.436,1.041 -13.596,-1.043 -3.18,2.084 -7.328,0 -11.531,2.084 h -11.512 c -3.125,1.041 -9.447,-1.041 -12.537,-1.041 l -10.488,2.082 h -1.061 c -6.286,0 -13.613,-1.041 -18.841,1.078 -4.148,1.006 -8.368,-1.078 -10.435,-1.078 h -2.1 c -2.103,2.084 -5.228,0 -7.31,2.084 -3.181,0 -5.228,-2.084 -7.365,-1.006 -3.125,2.047 -8.351,-1.078 -10.487,2.047 -5.228,-1.041 -13.616,0 -20.926,0 v 1.078 h 1.061 l -109.9,2.082 c 0,2.121 -1.059,0 -2.1,0 -2.103,1.08 -6.287,1.08 -8.389,2.121 -4.184,1.006 -8.353,-1.041 -13.613,-1.041 -1.025,-2.084 -2.084,-3.162 -1.025,-5.281 0,-7.291 -1.059,-14.656 0,-20.906 -3.16,-6.285 0,-11.529 -2.1,-17.816 0,-1.006 -1.061,-3.125 0,-5.209 1.041,-1.041 -1.061,-2.119 0,-3.125 V 714.078 713 708.869 c 2.1,-9.447 -2.084,-17.816 0,-26.188 0,-5.244 -2.084,-12.572 0,-16.738 0,-10.488 -2.084,-20.941 -1.061,-32.473 -1.023,-7.328 1.061,-14.656 -2.101,-20.906 0,-4.203 1.077,-8.404 0,-12.572 -2.084,-3.123 1.077,-8.404 1.077,-12.572 0,-6.322 -2.103,-13.613 -2.103,-19.936 1.025,-3.088 -1.059,-8.332 0,-11.459 0,-1.078 -2.101,-3.16 -1.059,-5.209 -1.042,-1.076 1.059,-3.195 1.059,-4.201 -1.059,-5.281 2.103,-10.49 -1.059,-14.693 0,-2.082 0,-3.125 -1.042,-4.166 v -2.119 c 0,-4.166 1.042,-8.332 0,-12.537 1.042,-4.201 0,-8.404 0,-12.535 0,-4.203 -1.022,-8.404 0,-12.572 1.042,-6.322 -1.022,-13.615 1.042,-20.977 -1.042,-3.09 1.059,-6.252 -1.042,-9.412 2.101,-4.166 0,-8.371 0,-11.531 -1.022,-5.207 2.101,-8.332 0,-12.535 1.042,-4.203 1.042,-10.49 1.042,-14.656 0,-2.084 -1.042,-3.16 0,-4.203 -1.042,-5.244 0,-10.453 -1.042,-15.697 1.042,-5.244 0,-10.453 1.042,-14.619 -1.042,-5.281 0,-10.488 -1.042,-16.775 -1.022,-5.209 1.042,-9.412 -1.022,-13.613 0,-4.203 1.022,-8.334 0,-12.572 1.022,-3.125 -2.103,-6.25 0,-9.375 0,-5.246 1.022,-7.365 1.022,-11.568 0,-4.131 -3.125,-7.326 0,-10.452 -1.022,-2.084 -1.022,-4.167 -2.102,-6.286 1.079,-4.166 -1.023,-8.334 0,-13.614 0,-1.042 1.079,-3.124 1.079,-5.208 -1.079,-6.287 0,-14.656 -2.103,-19.9 v -2.084 c 1.023,-1.041 -1.061,-3.125 0,-5.244 -1.061,-5.209 2.103,-12.537 0,-19.9 v -3.125 -1.047 c 0,-1.042 0,-3.161 -1.061,-5.244 0,-4.203 2.084,-8.333 0,-12.537 -2.1,-4.202 2.084,-10.488 0,-15.697 v -4.203 c 0,-4.203 -3.123,-9.411 0,-12.537 v -1.077 c 0,-3.161 0,-9.411 -1.041,-13.614 0,-2.083 1.041,-4.203 0,-5.208 -1.059,-7.363 0,-14.691 0,-22.019 0,-1.042 0,-2.084 -1.059,-3.125 1.059,-2.083 0,-5.245 1.059,-7.328 0,-8.37 -3.161,-17.781 0,-27.192 0,-1.078 1.041,-1.078 0,-1.078 1.041,-4.203 -1.059,-6.286 0,-8.37 0,-1.042 1.041,-3.125 1.041,-4.203 -1.041,-1.042 -1.041,-3.125 -1.041,-4.167 1.041,-1.042 0,-1.042 0,-1.042 0,-2.12 1.041,-3.125 0,-6.286 1.041,-5.245 -2.082,-11.531 1.041,-17.817 0,-4.167 -1.041,-8.369 0,-13.578 -1.041,-1.078 0,-2.084 0,-3.162 -1.041,-5.245 0,-12.536 -2.1,-18.822 1.059,-2.119 0,-5.245 0,-7.328 -1.023,-1.078 1.059,-2.119 2.1,-4.203 4.186,-2.083 9.412,0 14.675,0 10.435,-2.083 21.966,-2.083 32.436,-3.161 11.514,2.119 19.864,-1.042 31.413,0 6.286,0 13.613,-3.125 19.864,-1.042 9.447,-3.125 20.96,-1.005 31.413,-2.083 l 3.125,1.078 c 5.226,0 10.488,-1.078 13.613,2.047 0,0 2.102,0 0,1.078 2.102,3.125 1.061,7.328 1.061,10.489 h -1.061 c 2.102,1.006 0,1.006 1.061,1.006 -1.061,2.119 1.041,4.203 2.101,5.245 5.228,3.161 11.514,0 17.765,3.161 5.26,0 11.547,-2.119 15.715,1.005 9.447,0 15.695,3.125 24.084,4.203 3.125,4.203 9.411,2.083 12.59,5.245 6.251,0 10.473,2.083 14.639,6.286 5.226,4.167 12.535,4.167 17.798,9.411 7.31,2.084 10.452,7.329 16.738,10.489 0,1.006 2.103,1.006 3.163,3.125 1.023,6.286 5.225,11.494 6.248,18.822 1.062,0 0,0 0,1.078 2.103,4.167 4.205,6.286 3.161,10.417 2.067,2.155 1.044,5.28 3.126,7.364 0,3.125 1.078,5.244 2.102,8.405 3.125,12.537 6.286,22.99 7.327,36.639 1.061,3.125 -2.101,5.208 -4.202,7.292 -1.023,0 -2.066,3.125 -4.148,4.203 -1.078,4.167 -5.263,8.37 -6.304,12.536 -2.085,2.12 -6.286,4.203 -6.286,6.286 -4.187,1.042 -2.084,6.322 -5.264,7.328 -3.125,3.125 -5.209,6.287 -8.352,7.328 -3.124,2.083 -4.185,6.286 -8.333,7.328 -3.179,3.161 -8.389,5.245 -8.389,10.489 -1.076,0 -3.16,1.006 -3.16,3.161 -2.064,4.131 -6.304,0 -9.392,3.125 -2.138,-1.078 -4.222,0 -6.324,1.006 -4.148,1.078 -8.351,-1.006 -11.512,0 -4.148,3.125 -7.329,-2.083 -11.478,1.078 -4.22,0 -8.386,-1.078 -11.547,0 -3.125,-1.078 -8.388,0 -11.514,-2.083 -6.251,0 -10.487,-3.125 -16.738,-4.203 -4.185,-4.203 -4.185,-11.531 -6.286,-15.698 -3.161,-3.125 -4.167,-7.328 -6.287,-9.411 0,-5.244 -2.102,-8.405 -2.102,-12.608 -3.125,-11.495 -9.411,-24.031 -10.452,-36.639 -2.085,-4.167 -3.161,-8.333 -4.185,-13.578 2.1,-10.453 10.488,-15.733 14.637,-24.067 3.161,-4.203 8.389,-6.286 10.49,-10.489 3.124,-2.083 7.31,-6.286 12.572,-4.203 5.226,0 7.327,-2.083 12.535,-2.083 h 12.59 v -1.042 c 4.148,1.042 8.353,-3.125 11.514,-1.006 7.31,-1.078 11.476,2.048 19.864,2.048 1.059,0 4.222,0 4.222,3.161 1.005,4.203 1.005,7.328 4.166,10.489 3.161,5.208 5.226,9.411 8.386,14.62 1.025,5.245 5.21,10.489 5.21,15.733 -4.185,5.208 -1.061,11.494 -5.21,16.739 -1.076,4.167 0,10.453 -4.237,14.656 1.077,1.042 0,3.125 -0.987,4.167 -6.322,0 -10.49,1.077 -15.716,4.203 -1.061,-1.042 -4.222,-3.125 -5.263,0 -3.125,-1.042 -5.207,0 -6.286,-1.042 l -2.047,1.042 c -5.263,0 -10.49,0 -15.715,2.083 0,0 -2.103,2.083 -4.222,0 3.16,-7.328 7.347,-15.697 8.388,-23.025 3.161,-3.125 7.345,-1.078 9.447,-3.125 4.148,1.042 7.31,2.047 10.435,0 3.179,-4.203 0,-8.405 0,-12.572 2.102,-5.245 -1.023,-9.411 0,-15.733 -2.084,-2.084 -3.125,-4.131 -7.31,-2.084 -4.204,2.084 -7.327,-2.047 -12.572,0 -1.041,2.084 -6.269,3.161 -10.452,4.203 -1.023,-2.119 -3.161,0 -5.263,0 -5.228,2.083 -13.613,-1.042 -17.763,4.203 0,2.083 1.023,4.167 0,5.208 1.023,1.078 1.023,2.084 0,3.162 1.023,4.167 0,6.25 1.023,9.411 v 7.329 c 1.077,2.083 0,5.244 2.101,8.369 0,0 -1.023,1.042 -1.023,3.125 2.049,1.078 2.049,5.245 3.125,8.406 1.061,1.042 0,3.125 2.084,5.208 1.076,0 1.076,4.203 1.076,4.203 0,5.208 2.049,12.536 8.389,16.739 h 8.315 3.16 l 14.675,1.077 c 4.148,2.047 6.25,-1.077 10.435,-1.077 1.041,-2.084 5.263,-1.042 7.327,-2.084 h 2.103 c 3.16,1.042 4.222,-2.119 7.31,-2.119 3.16,2.119 6.304,-3.125 9.464,-4.131 6.251,-4.203 10.435,-12.608 16.722,-16.775 2.102,-8.37 11.531,-9.447 10.489,-16.739 1.042,-12.608 -3.125,-23.025 -3.125,-33.514 -2.138,-8.405 -3.161,-15.698 -3.161,-23.025 -1.061,-2.119 -2.102,-6.286 -3.16,-8.405 -1.043,-2.083 -5.228,-2.083 -5.228,-6.25 -2.103,-1.042 -2.103,-3.161 -4.148,-4.167 -3.179,-3.161 -5.263,-5.281 -8.389,-8.406 -2.1,-1.042 -4.237,-4.203 -7.327,-4.203 -2.137,-4.167 -7.362,0 -10.488,-3.125 -2.084,-1.042 -4.186,1.042 -7.347,-1.042 -1.041,0 -2.064,2.083 -3.125,0 -4.202,3.161 -7.327,-1.042 -11.512,1.042 -3.125,0 -6.286,-1.042 -10.452,0 -1.062,-1.042 -2.103,0 -4.222,1.042 -4.167,-2.083 -8.315,-1.042 -13.578,-1.042 -3.126,-1.042 -7.362,3.125 -11.512,0 -4.204,-1.042 -8.388,4.202 -14.675,3.125 -3.125,4.203 -6.25,8.406 -10.489,11.53 -1.023,3.162 -7.327,2.083 -7.327,6.286 -3.125,3.125 -5.208,7.328 -8.333,9.412 -3.144,4.203 -5.263,9.411 -8.388,12.572 -3.126,4.203 1.059,9.411 0,14.656 -1.041,0 0,1.077 0,2.083 1.059,8.406 -1.041,17.817 2.084,27.229 1.041,6.286 0,12.572 2.1,20.941 h -1.059 c 1.059,3.125 0,7.292 1.059,10.453 0,2.12 1.061,4.203 1.061,6.322 0,4.131 0,7.292 2.101,10.417 1.043,10.489 5.228,19.9 7.329,30.353 1.023,4.203 1.023,7.364 5.225,9.447 5.21,0 8.389,4.203 12.537,3.125 4.222,1.078 9.447,-1.042 12.572,1.078 14.639,3.125 30.354,4.167 46.05,4.167 8.389,-1.042 15.716,0 23.027,-1.042 8.386,1.042 18.839,1.042 27.227,-1.078 5.228,1.078 10.49,0 16.776,-2.047 3.123,-4.203 4.148,-11.531 8.351,-16.775 4.185,-4.203 4.185,-10.489 8.388,-14.62 0,-4.203 4.185,-6.322 4.185,-11.567 1.041,-3.125 5.228,-5.208 4.167,-10.453 3.16,-5.208 7.346,-11.495 8.388,-17.781 4.185,-5.245 4.185,-9.447 8.388,-14.656 5.208,-8.37 2.082,-15.697 1.023,-24.103 -1.023,-2.084 -1.023,-5.208 -1.023,-7.292 0,-6.322 -1.078,-10.453 -3.18,-15.733 -1.023,-4.167 0,-6.286 -1.023,-10.489 0,-4.131 -2.103,-7.292 -1.023,-11.495 -2.103,-8.333 -3.161,-15.662 -6.287,-23.025 -1.078,-2.083 -4.201,-5.208 -6.303,-7.328 0,-3.125 -6.287,-3.125 -7.311,-6.286 -6.285,-2.083 -8.388,-7.328 -16.738,-9.412 -1.061,-4.202 -5.228,-3.125 -8.389,-6.25 -4.203,-2.155 -10.49,-2.155 -12.536,-7.364 -3.179,0 -5.263,-2.083 -9.465,-2.083 -2.084,-1.042 -3.161,-2.12 -3.161,-4.167 -5.227,1.042 -8.314,-4.203 -12.536,-4.203 -1.042,-5.244 -9.43,-1.042 -11.514,-5.244 -4.202,1.042 -5.226,-3.125 -9.43,-2.083 -2.082,-3.161 -6.286,-1.042 -8.368,-3.161 -2.066,0 -5.228,1.042 -6.269,-2.083 4.202,-7.328 13.613,-3.125 20.943,-4.203 4.184,2.12 6.248,-3.125 11.511,-1.005 2.084,-2.12 3.126,0 6.286,0 9.376,0 19.864,1.005 30.335,-1.078 v 1.078 c 3.143,0 4.203,-1.078 6.306,0 h 10.435 c 10.488,-2.12 16.774,2.083 26.203,0 3.126,-2.12 6.287,0 8.334,0 h 19.901 c 2.1,1.005 4.201,0 5.225,0 h -1.023 c 4.185,0 8.388,2.083 10.488,0 l 69.076,-1.078 -1.078,-1.042 c 4.239,1.042 11.549,-2.083 13.616,2.12 2.1,-1.078 4.201,-1.078 6.32,-1.078 2.064,7.364 1.006,10.489 0,18.858 -1.059,1.042 0,3.125 0,4.203 -1.059,3.125 0,4.167 0,7.328 -1.059,4.131 2.064,12.536 -2.119,16.739 l 1.061,1.042 h -1.061 c 2.119,4.167 1.061,10.453 2.119,13.614 -1.059,2.084 2.064,6.25 0,9.412 -1.059,5.245 2.064,10.453 -1.059,17.781 -1.061,8.37 2.064,16.775 1.059,25.109 0,3.161 1.006,5.28 0,8.405 0,10.489 2.064,21.983 0,33.514 3.09,4.167 0,10.489 2.064,16.739 -2.064,6.286 0,11.495 0,17.781 1.025,4.203 -3.123,8.405 0,12.573 -3.123,7.328 0,15.733 0,24.066 v 14.656 c 1.025,7.328 -1.059,14.656 0,23.061 0,4.167 -1.059,8.334 0,12.537 0,4.203 1.025,7.328 0,11.495 0,7.328 3.163,14.69 1.025,22.021 2.138,4.201 -1.025,6.286 1.077,9.41 1.061,6.25 -3.161,11.494 0,16.74 -1.077,6.285 -2.103,11.494 -1.077,15.697 -1.025,5.207 3.161,10.453 -1.025,15.697 1.025,4.203 5.264,8.369 2.103,13.613 3.161,4.203 -2.103,9.412 2.084,13.613 v 10.453 c 1.077,1.078 -1.023,3.16 0,5.246 1.077,9.41 0,19.898 0,29.311 0,4.166 3.144,9.41 0,14.654 2.101,5.244 2.101,10.455 1.077,15.699 2.066,5.279 1.023,13.613 1.023,18.857 1.043,3.125 -1.023,7.328 0,10.453 1.043,4.203 -2.101,8.369 1.043,11.529 0,3.125 -3.144,3.125 -3.144,5.209 4.202,3.162 1.077,9.447 3.144,13.613 0,6.287 -2.066,10.49 0,15.699 0,5.244 -2.066,11.531 -1.043,17.816 1.043,6.287 2.102,11.531 2.102,17.816 -1.059,1.006 -1.059,4.166 -1.059,6.25 -1.043,0 1.059,1.041 0,2.084 0,1.076 1.059,2.156 1.059,2.156 2.102,3.125 0,7.291 1.023,11.457 -1.023,4.24 2.102,7.363 -1.023,11.531 0,4.166 2.102,7.293 1.023,10.453 0,7.326 3.161,16.738 1.078,24.102 2.083,4.168 0,8.369 1.023,12.537 0,4.203 0,9.41 1.06,13.613 -2.083,6.287 1.042,11.531 0,17.816 1.042,2.084 0,5.209 0,7.328 1.042,5.209 0,11.496 1.042,16.703 2.085,7.33 -2.099,13.617 2.085,19.903 M 71.177,72.388 c 0,1.042 0,2.119 -2.102,3.125 -8.334,4.203 -21.947,3.161 -29.312,5.244 l -3.125,1.078 c -10.453,0 -18.823,3.125 -29.312,2.083 -1.023,-2.083 -1.023,-4.203 0,-6.286 H 6.304 c 1.023,-1.078 0,-2.12 0,-1.078 0,-8.333 1.023,-14.62 0,-21.947 V 48.321 C 4.202,43.076 4.202,38.873 5.226,33.665 c -1.023,-2.083 0,-5.244 0,-7.364 L 3.125,19.01 c -1.025,-1.042 1.077,-1.042 0,-2.119 2.101,-1.042 5.261,0 6.305,2.119 l 1.059,8.37 v 1.042 c 1.023,3.161 0,5.244 1.023,8.369 2.102,4.203 3.125,9.412 2.102,15.698 0,4.202 1.023,7.328 1.023,10.488 v 3.125 c 0,3.125 0,7.328 3.179,8.405 3.125,0 7.312,3.125 9.411,0 4.187,-4.203 4.187,-8.405 4.187,-13.65 -2.084,-4.167 0,-9.411 -2.084,-15.662 1.023,-4.202 -2.103,-6.322 -1.079,-10.489 l -1.023,-3.125 v -2.119 c -1.041,-1.042 0,-2.083 0,-3.162 2.103,-1.005 4.187,-3.125 6.286,-2.047 1.023,2.047 0,5.208 1.023,7.328 1.079,4.131 2.103,7.292 1.079,10.453 2.102,9.411 4.148,18.822 4.148,27.192 1.078,2.12 2.102,3.161 4.202,4.203 3.162,-1.042 7.347,-4.203 11.513,-2.083 2.085,1.042 4.185,0 5.263,-2.12 1.023,-8.37 -3.178,-14.62 -3.178,-21.947 -2.085,-7.364 -2.085,-15.698 -5.21,-23.025 -1.041,-3.161 0,-5.245 -2.102,-8.405 0,-2.083 2.102,-2.083 3.125,-3.125 2.102,0 4.187,1.042 4.187,2.083 v 1.042 c 1.076,0 0,0 0,1.042 1.076,2.119 0,3.161 2.1,5.28 1.078,8.333 3.161,14.62 5.228,21.947 l -1.023,1.078 c 3.159,8.334 5.206,17.781 7.308,27.192"
           style="stroke-width:0.79477429" />
        <g
           style="fill:#000;stroke:none">
          <path d="m 190.3251,275.42793 v -0.37784 h 2.62736 v 0.37784 h -1.0962 v 2.85143 h -0.43277 v -2.85143 z" />
          <path d="m 193.35007,278.27936 v -3.22927 h 0.62169 l 0.91606,2.7306 0.91826,-2.7306 h 0.62169 v 3.22927 h -0.40421 v -2.74378 l -0.91826,2.74378 h -0.43276 l -0.91826,-2.74378 v 2.74378 z" />
        </g>
      </g>
    </g>
  </g>
</svg>
